<svg width="270" height="64" viewBox="0 0 270 64" fill="none" xmlns="http://www.w3.org/2000/svg">
<path d="M34.1876 51.6956C32.389 51.5988 30.6575 51.2502 29.0244 50.6862C21.5111 48.0889 16.1034 40.8996 16.1034 32.4322C16.1034 22.7134 23.2234 14.6744 32.4873 13.3358C32.9765 13.2656 33.4705 13.2148 33.9693 13.1809C36.1133 12.0335 38.4682 11.2371 40.9647 10.8765C41.9695 10.7336 42.9959 10.6513 44.0414 10.6513C44.0726 10.6513 44.1062 10.6513 44.1374 10.6513C42.4371 8.02254 41.7968 4.90718 42.31 2C40.274 5.57044 36.2715 7.99833 31.6624 7.99833C27.0532 7.99833 23.0507 5.57286 21.0123 2.00242C21.7245 6.0594 20.2041 10.5182 16.6741 13.5077C13.1465 16.4972 8.53249 17.2355 4.6979 15.8218C7.82745 18.4676 9.49893 22.8683 8.70036 27.4457C7.90179 32.0256 4.83699 35.5815 1 36.9879C5.0792 36.9854 9.16799 39.2729 11.4702 43.296C13.7724 47.324 13.6908 52.0369 11.6476 55.6025C14.77 52.9519 19.3552 52.0515 23.6838 53.6442C28.0124 55.2346 30.9525 58.8994 31.6576 62.9564C32.3626 58.9019 35.3003 55.237 39.6265 53.6467C38.7536 53.4627 37.8999 53.2255 37.0701 52.9374C36.0749 52.5937 35.1132 52.1749 34.19 51.6932L34.1876 51.6956Z" fill="url(#paint0_radial_1036_8169)"/>
<path d="M44.032 13.1373C43.1039 13.1373 42.1926 13.2099 41.3005 13.3358C40.7321 13.4181 40.1734 13.5246 39.6242 13.6578C31.1924 15.6669 24.9189 23.3088 24.9189 32.4322C24.9189 40.8972 30.3243 48.0889 37.84 50.6862C38.4252 50.8895 39.0247 51.059 39.6338 51.2067C41.0463 51.5455 42.5187 51.7271 44.0344 51.7271C54.5909 51.7271 63.1498 43.0878 63.1498 32.4322C63.1498 21.7766 54.5909 13.1373 44.0344 13.1373H44.032Z" fill="url(#paint1_radial_1036_8169)"/>
<g style="mix-blend-mode:screen" opacity="0.4">
<ellipse cx="7.0096" cy="3.22701" rx="7.0096" ry="3.22701" transform="matrix(0.794041 -0.607864 0.600694 0.799479 27.8589 23.109)" fill="#CDF7FF"/>
</g>
<path d="M82.3 18.12H78.8C78.6343 18.12 78.5 18.2543 78.5 18.42V46.4C78.5 46.5657 78.6343 46.7 78.8 46.7H82.3C82.4657 46.7 82.6 46.5657 82.6 46.4V18.42C82.6 18.2543 82.4657 18.12 82.3 18.12Z" fill="white"/>
<path d="M118.03 15.5H114.31C114.14 15.5 114.01 15.63 114.01 15.8V40.03L97.2602 22.98C97.1702 22.89 97.0502 22.87 96.9302 22.91C96.8202 22.96 96.7402 23.07 96.7402 23.19V46.41C96.7402 46.58 96.8702 46.71 97.0402 46.71H100.76C100.93 46.71 101.06 46.58 101.06 46.41V33.11L114.32 46.62C114.38 46.68 114.45 46.71 114.53 46.71H118.03C118.2 46.71 118.33 46.58 118.33 46.41V15.8C118.33 15.63 118.2 15.5 118.03 15.5Z" fill="white"/>
<path d="M148.67 18.12H131.18C131.01 18.12 130.88 18.25 130.88 18.42V21.92C130.88 22.09 131.01 22.22 131.18 22.22H137.79V46.41C137.79 46.58 137.92 46.71 138.09 46.71H141.76C141.93 46.71 142.06 46.58 142.06 46.41V22.22H148.67C148.84 22.22 148.97 22.09 148.97 21.92V18.42C148.97 18.25 148.84 18.12 148.67 18.12Z" fill="white"/>
<path d="M180.16 16.97C180.05 16.92 179.92 16.95 179.83 17.04L169.72 27.15L159.62 17.04C159.53 16.95 159.41 16.93 159.29 16.97C159.18 17.02 159.1 17.13 159.1 17.25V46.42C159.1 46.59 159.23 46.72 159.4 46.72H162.9C163.07 46.72 163.2 46.59 163.2 46.42V26.4L169.55 32.71C169.61 32.77 169.68 32.8 169.76 32.8C169.84 32.8 169.92 32.77 169.97 32.71L176.23 26.41V46.41C176.23 46.58 176.36 46.71 176.53 46.71H180.03C180.2 46.71 180.33 46.58 180.33 46.41V17.24C180.33 17.12 180.26 17.01 180.15 16.96L180.16 16.97Z" fill="white"/>
<path d="M206.58 17C206.53 16.91 206.43 16.85 206.32 16.85C206.21 16.85 206.12 16.91 206.06 17L189.18 45.25C189.14 45.32 189.13 45.4 189.15 45.48C189.17 45.56 189.22 45.62 189.29 45.66L192.57 47.54C192.57 47.54 192.67 47.58 192.72 47.58C192.82 47.58 192.92 47.53 192.98 47.43L199.32 36.78H213.37L219.75 47.44C219.84 47.58 220.02 47.63 220.16 47.55L223.4 45.67C223.47 45.63 223.52 45.56 223.54 45.49C223.56 45.41 223.54 45.33 223.51 45.26L206.58 17ZM210.78 32.42H201.96L206.37 25.04L210.78 32.42Z" fill="white"/>
<path d="M252.2 43.97L242.96 34.68L251.85 19.14C251.93 19 251.88 18.81 251.74 18.73L248.46 16.85C248.39 16.81 248.31 16.8 248.23 16.82C248.15 16.84 248.09 16.89 248.05 16.96L239.81 31.44L228.85 20.4C228.79 20.34 228.72 20.31 228.64 20.31C228.56 20.31 228.48 20.34 228.43 20.4L225.81 23.07C225.69 23.19 225.69 23.38 225.81 23.49L237.59 35.35L230.23 48.27C230.15 48.41 230.2 48.6 230.34 48.68L233.58 50.56C233.58 50.56 233.68 50.6 233.73 50.6C233.76 50.6 233.78 50.6 233.81 50.6C233.89 50.58 233.95 50.53 233.99 50.46L240.75 38.56L249.17 47.07C249.23 47.13 249.3 47.16 249.38 47.16C249.46 47.16 249.54 47.13 249.59 47.07L252.21 44.4C252.33 44.28 252.33 44.1 252.21 43.98L252.2 43.97Z" fill="white"/>
<defs>
<radialGradient id="paint0_radial_1036_8169" cx="0" cy="0" r="1" gradientUnits="userSpaceOnUse" gradientTransform="translate(10.1053 8.42105) rotate(56.1649) scale(61.5038 62.2776)">
<stop stop-color="#11E8BB"/>
<stop offset="0.337688" stop-color="#15D7F4"/>
<stop offset="0.657022" stop-color="#3975FF"/>
<stop offset="0.801297" stop-color="#713CF3"/>
<stop offset="0.88127" stop-color="#9926FA"/>
<stop offset="0.947302" stop-color="#A90EFD"/>
<stop offset="1" stop-color="#D52BFF"/>
</radialGradient>
<radialGradient id="paint1_radial_1036_8169" cx="0" cy="0" r="1" gradientUnits="userSpaceOnUse" gradientTransform="translate(20.2106 6.7371) rotate(48.8141) scale(53.7102 40.3113)">
<stop stop-color="#0FFFDF"/>
<stop offset="0.337688" stop-color="#15D7F4"/>
<stop offset="0.657022" stop-color="#3975FF"/>
<stop offset="0.801297" stop-color="#713CF3"/>
<stop offset="0.88127" stop-color="#9926FA"/>
<stop offset="0.947302" stop-color="#A90EFD"/>
<stop offset="1" stop-color="#D52BFF"/>
</radialGradient>
</defs>
</svg>
