<svg width="270" height="64" viewBox="0 0 270 64" fill="none" xmlns="http://www.w3.org/2000/svg">
<path d="M34.1876 51.6956C32.389 51.5988 30.6575 51.2502 29.0244 50.6862C21.5111 48.0889 16.1034 40.8996 16.1034 32.4322C16.1034 22.7134 23.2234 14.6744 32.4873 13.3358C32.9765 13.2656 33.4705 13.2148 33.9693 13.1809C36.1133 12.0335 38.4682 11.2371 40.9647 10.8765C41.9695 10.7336 42.9959 10.6513 44.0414 10.6513C44.0726 10.6513 44.1062 10.6513 44.1374 10.6513C42.4371 8.02254 41.7968 4.90718 42.31 2C40.274 5.57044 36.2715 7.99833 31.6624 7.99833C27.0532 7.99833 23.0507 5.57286 21.0123 2.00242C21.7245 6.0594 20.2041 10.5182 16.6741 13.5077C13.1465 16.4972 8.53249 17.2355 4.6979 15.8218C7.82745 18.4676 9.49893 22.8683 8.70036 27.4457C7.90179 32.0256 4.83699 35.5815 1 36.9879C5.0792 36.9854 9.16799 39.2729 11.4702 43.296C13.7724 47.324 13.6908 52.0369 11.6476 55.6025C14.77 52.9519 19.3552 52.0515 23.6838 53.6442C28.0124 55.2346 30.9525 58.8994 31.6576 62.9564C32.3626 58.9019 35.3003 55.237 39.6265 53.6467C38.7536 53.4627 37.8999 53.2255 37.0701 52.9374C36.0749 52.5937 35.1132 52.1749 34.19 51.6932L34.1876 51.6956Z" fill="url(#paint0_radial_1036_8143)"/>
<path d="M44.032 13.1373C43.1039 13.1373 42.1926 13.2099 41.3005 13.3358C40.7321 13.4181 40.1734 13.5246 39.6242 13.6578C31.1924 15.6669 24.9189 23.3088 24.9189 32.4322C24.9189 40.8972 30.3243 48.0889 37.84 50.6862C38.4252 50.8895 39.0247 51.059 39.6338 51.2067C41.0463 51.5455 42.5187 51.7271 44.0344 51.7271C54.5909 51.7271 63.1498 43.0878 63.1498 32.4322C63.1498 21.7766 54.5909 13.1373 44.0344 13.1373H44.032Z" fill="url(#paint1_radial_1036_8143)"/>
<g style="mix-blend-mode:screen" opacity="0.4">
<ellipse cx="7.0096" cy="3.22701" rx="7.0096" ry="3.22701" transform="matrix(0.794041 -0.607864 0.600694 0.799479 27.8589 23.109)" fill="#CDF7FF"/>
</g>
<path d="M82.24 17.62H78.74C78.3313 17.62 78 17.9513 78 18.36V46.36C78 46.7687 78.3313 47.1 78.74 47.1H82.24C82.6487 47.1 82.98 46.7687 82.98 46.36V18.36C82.98 17.9513 82.6487 17.62 82.24 17.62Z" fill="#010101"/>
<path d="M117.99 15H114.27C113.86 15 113.53 15.33 113.53 15.74V38.91L97.52 22.61C97.31 22.4 96.99 22.33 96.71 22.44C96.43 22.55 96.25 22.82 96.25 23.13V46.36C96.25 46.77 96.58 47.1 96.99 47.1H100.71C101.12 47.1 101.45 46.77 101.45 46.36V34.13L113.96 46.87C114.1 47.01 114.29 47.1 114.49 47.1H117.99C118.4 47.1 118.73 46.77 118.73 46.36V15.74C118.73 15.33 118.4 15 117.99 15Z" fill="#010101"/>
<path d="M148.61 17.62H131.15C130.74 17.62 130.41 17.95 130.41 18.36V21.86C130.41 22.27 130.74 22.6 131.15 22.6H137.32V46.36C137.32 46.77 137.65 47.1 138.06 47.1H141.73C142.14 47.1 142.47 46.77 142.47 46.36V22.61H148.64C149.05 22.61 149.38 22.28 149.38 21.87V18.37C149.38 17.95 149.03 17.58 148.6 17.63L148.61 17.62Z" fill="#010101"/>
<path d="M180.68 16.5C180.68 16.5 180.65 16.49 180.64 16.48C180.37 16.39 180.06 16.45 179.87 16.66L170.07 26.46L160.27 16.66C160.06 16.45 159.74 16.38 159.46 16.5C159.18 16.62 159 16.88 159 17.19V46.37C159 46.78 159.33 47.11 159.74 47.11H163.24C163.65 47.11 163.98 46.78 163.98 46.37V27.41L169.58 32.97C169.71 33.1 169.89 33.18 170.11 33.19C170.31 33.19 170.5 33.11 170.64 32.97L176.15 27.42V46.36C176.15 46.77 176.48 47.1 176.89 47.1H180.39C180.8 47.1 181.13 46.77 181.13 46.36V17.19C181.13 16.89 180.95 16.62 180.68 16.51V16.5Z" fill="#010101"/>
<path d="M206.94 17.16C206.68 16.73 205.96 16.73 205.7 17.16L189.29 44.62C189.19 44.79 189.17 44.98 189.21 45.17C189.26 45.36 189.38 45.52 189.55 45.62L192.74 47.45C193.07 47.64 193.53 47.52 193.72 47.19L199.76 37.05H212.93L219.01 47.2C219.14 47.42 219.38 47.55 219.63 47.55C219.75 47.55 219.88 47.52 219.99 47.45L223.13 45.62C223.3 45.52 223.42 45.36 223.47 45.17C223.52 44.98 223.49 44.78 223.39 44.62L206.94 17.16ZM209.9 31.94H202.84L206.37 26.03L209.9 31.94Z" fill="#010101"/>
<path d="M252.54 43.61C252.54 43.61 252.52 43.59 252.5 43.58L243.53 34.56L252.26 19.3C252.46 18.95 252.34 18.49 251.98 18.29L248.7 16.41C248.53 16.31 248.33 16.28 248.12 16.34C247.93 16.4 247.77 16.52 247.68 16.69L239.72 30.67L229.17 20.03C228.89 19.75 228.38 19.76 228.12 20.03L225.5 22.7C225.22 22.99 225.22 23.45 225.5 23.74L237.04 35.37L229.84 48C229.64 48.35 229.76 48.81 230.11 49.01L233.36 50.9C233.47 50.96 233.6 50.99 233.72 50.99C233.75 50.99 233.88 50.97 233.91 50.97C234.1 50.92 234.26 50.8 234.36 50.62L240.83 39.22L248.85 47.32C249.13 47.6 249.64 47.59 249.91 47.32L252.53 44.65C252.81 44.36 252.81 43.9 252.53 43.61H252.54Z" fill="#010101"/>
<defs>
<radialGradient id="paint0_radial_1036_8143" cx="0" cy="0" r="1" gradientUnits="userSpaceOnUse" gradientTransform="translate(10.1053 8.42105) rotate(56.1649) scale(61.5038 62.2776)">
<stop stop-color="#11E8BB"/>
<stop offset="0.337688" stop-color="#15D7F4"/>
<stop offset="0.657022" stop-color="#3975FF"/>
<stop offset="0.801297" stop-color="#713CF3"/>
<stop offset="0.88127" stop-color="#9926FA"/>
<stop offset="0.947302" stop-color="#A90EFD"/>
<stop offset="1" stop-color="#D52BFF"/>
</radialGradient>
<radialGradient id="paint1_radial_1036_8143" cx="0" cy="0" r="1" gradientUnits="userSpaceOnUse" gradientTransform="translate(20.2106 6.7371) rotate(48.8141) scale(53.7102 40.3113)">
<stop stop-color="#0FFFDF"/>
<stop offset="0.337688" stop-color="#15D7F4"/>
<stop offset="0.657022" stop-color="#3975FF"/>
<stop offset="0.801297" stop-color="#713CF3"/>
<stop offset="0.88127" stop-color="#9926FA"/>
<stop offset="0.947302" stop-color="#A90EFD"/>
<stop offset="1" stop-color="#D52BFF"/>
</radialGradient>
</defs>
</svg>
